<svg xmlns="http://www.w3.org/2000/svg" viewBox="0 0 320 220"><defs><linearGradient id="sunCore" x1="0" x2="1"><stop offset="0%" stop-color="#ffd75d"/><stop offset="100%" stop-color="#ffb30f"/></linearGradient><linearGradient id="cloudFill" x1="0" x2="1"><stop offset="0%" stop-color="#d8e8f7"/><stop offset="100%" stop-color="#afcae6"/></linearGradient></defs><g transform="translate(126 10)"><g fill="none" stroke="#f4b332" stroke-width="8" stroke-linecap="round"><path d="M64 0v20"/><path d="M64 116v20"/><path d="M0 58h20"/><path d="M108 58h20"/><path d="M18 16 32 30"/><path d="M96 94 110 108"/><path d="M96 16 82 30"/><path d="M18 100 32 86"/></g><circle cx="64" cy="58" r="42" fill="url(#sunCore)"/></g><g transform="translate(24 86)"><path d="M52 88h136c22 0 40-16 40-36 0-19-15-35-34-36-9-24-34-40-63-40-27 0-50 14-61 35-3-1-7-1-11-1C26 10 0 34 0 64c0 13 6 24 16 32 10 8 23 12 36 12z" fill="url(#cloudFill)"/><path d="M52 88h136c22 0 40-16 40-36 0-19-15-35-34-36-9-24-34-40-63-40-27 0-50 14-61 35-3-1-7-1-11-1C26 10 0 34 0 64c0 13 6 24 16 32 10 8 23 12 36 12z" fill="none" stroke="#99bddf" stroke-width="8"/></g></svg>