<svg xmlns="http://www.w3.org/2000/svg" viewBox="0 0 320 220"><defs><linearGradient id="cloudBack" x1="0" x2="1"><stop offset="0%" stop-color="#d7e7f6"/><stop offset="100%" stop-color="#b3d0ea"/></linearGradient><linearGradient id="cloudFront" x1="0" x2="1"><stop offset="0%" stop-color="#c6dcf0"/><stop offset="100%" stop-color="#99bddf"/></linearGradient></defs><g transform="translate(16 70)"><path d="M48 82h122c20 0 36-14 36-32s-15-33-34-34c-8-21-30-34-55-34-24 0-44 11-55 29-3-1-6-1-10-1C22 10 0 30 0 55s22 27 48 27z" fill="url(#cloudBack)" stroke="#b0cce5" stroke-width="6"/></g><g transform="translate(88 92)"><path d="M46 78h122c20 0 36-14 36-32s-15-33-34-34c-8-21-30-34-55-34-24 0-44 11-55 29-3-1-6-1-10-1C20 6 0 26 0 51s20 27 46 27z" fill="url(#cloudFront)" stroke="#99bddf" stroke-width="7"/></g></svg>