<svg xmlns="http://www.w3.org/2000/svg" viewBox="0 0 320 220"><defs><linearGradient id="cloudFill" x1="0" x2="1"><stop offset="0%" stop-color="#d8e8f7"/><stop offset="100%" stop-color="#afcae6"/></linearGradient></defs><g transform="translate(36 52)"><path d="M52 88h136c22 0 40-16 40-36 0-19-15-35-34-36-9-24-34-40-63-40-27 0-50 14-61 35-3-1-7-1-11-1C26 10 0 34 0 64c0 13 6 24 16 32 10 8 23 12 36 12z" fill="url(#cloudFill)"/><path d="M52 88h136c22 0 40-16 40-36 0-19-15-35-34-36-9-24-34-40-63-40-27 0-50 14-61 35-3-1-7-1-11-1C26 10 0 34 0 64c0 13 6 24 16 32 10 8 23 12 36 12z" fill="none" stroke="#99bddf" stroke-width="8"/></g><g fill="#4c89da"><path d="M88 176c0 8-6 14-14 14s-14-6-14-14c0-10 14-28 14-28s14 18 14 28z"/><path d="M148 186c0 8-6 14-14 14s-14-6-14-14c0-10 14-28 14-28s14 18 14 28z"/><path d="M210 176c0 8-6 14-14 14s-14-6-14-14c0-10 14-28 14-28s14 18 14 28z"/></g></svg>